# xmcd CD Database Entry
#
# Track frame offsets:
# 150
# 85908
# 218055
# 290133
#
# Disc length: 4263 seconds
#
# Revision: 4
# Processed by: cddbd v1.4PL0 Copyright (c) Steve Scherf et al.
# Submitted via: tcd 2.0b
#
DISCID=3810a504
DTITLE=Panenka(Pf) - R.Schumann Kinderszenen - Carnaval etc
DYEAR=1900
DGENRE=
TTITLE0=Kinderszenen
TTITLE1=Carnaval Op.9
TTITLE2=Papillons Op.2
TTITLE3=Arabesque in C major, Op.18
EXTD=
EXTT0=
EXTT1=
EXTT2=
EXTT3=
PLAYORDER=
